# AST/ASF file generated using VICON BodyLanguage
# -----------------------------------------------
:version 1.10
:name VICON
:units
  mass 1.0
  length 0.45
  angle deg
:documentation
   .ast/.asf automatically generated from VICON data using
   VICON BodyBuilder and BodyLanguage model FoxedUp or BRILLIANT.MOD
:root
   order TX TY TZ RX RY RZ
   axis XYZ
   position 0 0 0  
   orientation 0 0 0 
:bonedata
  begin
     id 1 
     name lhipjoint
     direction 0.577973 -0.728611 0.367523 
     length 2.48544 
     axis 0 0 0  XYZ
  end
  begin
     id 2 
     name lfemur
     direction 0.34202 -0.939693 0  
     length 7.1921  
     axis 0 0 20  XYZ
    dof rx ry rz
    limits (-160.0 20.0)
           (-70.0 70.0)
           (-60.0 70.0)
  end
  begin
     id 3 
     name ltibia
     direction 0.34202 -0.939693 0   
     length 7.71059   
     axis 0 0 20   XYZ
    dof rx
    limits (-10.0 170.0)
  end
  begin
     id 4 
     name lfoot
     direction 0.089538 -0.246004 0.965124   
     length 2.19909   
     axis -90 7.62852e-016 20   XYZ
    dof rx rz
    limits (-45.0 90.0)
           (-70.0 20.0)
  end
  begin
     id 5 
     name ltoes
     direction 1.53544e-011 -4.21829e-011 1   
     length 1.10116   
     axis -90 7.62852e-016 20   XYZ
    dof rx
    limits (-90.0 20.0)
  end
  begin
     id 6 
     name rhipjoint
     direction -0.554414 -0.743062 0.374812   
     length 2.4371  
     axis 0 0 0  XYZ 
  end
  begin
     id 7 
     name rfemur
     direction -0.34202 -0.939693 0   
     length 7.47254   
     axis 0 0 -20   XYZ
    dof rx ry rz
    limits (-160.0 20.0)
           (-70.0 70.0)
           (-70.0 60.0)
  end
  begin
     id 8 
     name rtibia
     direction -0.34202 -0.939693 0   
     length 7.65855   
     axis 0 0 -20   XYZ
    dof rx
    limits (-10.0 170.0)
 end
 begin
     id 9 
     name rfoot
     direction -0.133779 -0.367555 0.92033   
     length 2.43006  
     axis -90 -7.62852e-016 -20   XYZ
    dof rx rz
    limits (-45.0 90.0)
           (-20.0 70.0)
  end
  begin
     id 10 
     name rtoes
     direction -1.53563e-011 -4.21889e-011 1   
     length 1.19625   
     axis -90 -7.62852e-016 -20   XYZ
    dof rx
    limits (-90.0 20.0)
  end
  begin
     id 11 
     name lowerback
     direction 0.0249066 0.998043 -0.0573585   
     length 2.08485   
     axis 0 0 0   XYZ
    dof rx ry rz
    limits (-20.0 45.0)
           (-30.0 30.0)
           (-30.0 30.0)
  end
  begin
     id 12 
     name upperback
     direction 0.0237884 0.999673 0.00943178   
     length 2.08515   
     axis 0 0 0   XYZ
    dof rx ry rz
    limits (-20.0 45.0)
           (-30.0 30.0)
           (-30.0 30.0)
  end
  begin
     id 13 
     name thorax
     direction 0.0106671 0.999301 0.0358174   
     length 2.09037   
     axis 0 0 0   XYZ
    dof rx ry rz
    limits (-20.0 45.0)
           (-30.0 30.0)
           (-30.0 30.0)
  end
  begin
     id 14 
     name lowerneck
     direction -0.0580016 0.987052 0.149546   
     length 1.84454   
     axis 0 0 0   XYZ
    dof rx ry rz
    limits (-20.0 45.0)
           (-30.0 30.0)
           (-30.0 30.0)
  end
  begin
     id 15 
     name upperneck
     direction 0.079456 0.981963 -0.171567   
     length 1.88141   
     axis 0 0 0   XYZ
    dof rx ry rz
    limits (-20.0 45.0)
           (-30.0 30.0)
           (-30.0 30.0)
  end
  begin
     id 16
     name head
     direction 0.0262167 0.9967 -0.0768276  
     length 1.89541  
     axis 0 0 0   XYZ
    dof rx ry rz
    limits (-20.0 45.0)
           (-30.0 30.0)
           (-30.0 30.0)
  end
  begin
     id 17 
     name lclavicle
     direction 0.946135 0.322134 -0.0325326  
     length 3.949  
     axis 0 0 0   XYZ
    dof ry rz
    limits (-20.0 10.0)
           (0.0 20.0)
  end
  begin
     id 18 
     name lhumerus
     direction 1 -4.48964e-011 1.94005e-028   
     length 5.10995   
     axis 180 -30 -90   XYZ
    dof rx ry rz
    limits (-60.0 90.0)
           (-90.0 90.0)
           (-90.0 90.0)
  end
  begin
     id 19
     name lradius
     direction 1 -4.48976e-011 2.87852e-027   
     length 3.21207   
     axis 180 -30 -90   XYZ
    dof rx
    limits (-10.0 170.0)
  end
  begin
     id 20
     name lwrist
     direction 1 -4.48963e-011 1.9975e-027   
     length 1.60604   
     axis 2.96054e-016 90 90   XYZ
    dof ry
    limits (-180.0 0.0)
 end
  begin
     id 21 
     name lhand
     direction 1 -4.48919e-011 4.00227e-027   
     length 0.63349   
     axis -2.5488e-015 90 90   XYZ
    dof rx rz
    limits (-90.0 90.0)
           (-45.0 45.0)
  end
  begin
     id 22 
     name lfingers
     direction 1 -4.49037e-011 7.9652e-027   
     length 0.510736   
     axis -5.0975e-015 90 90   XYZ
    dof rx
    limits (0.0 90.0)
  end
  begin
     id 23
     name lthumb
     direction 0.707107 -6.34922e-011 0.707107   
     length 0.733318   
     axis -90 45 -4.48553e-014   XYZ
    dof rx rz
    limits (-45.0 45.0)
           (-45.0 45.0)
  end
  begin
     id 24 
     name rclavicle
     direction -0.940085 0.328911 -0.0897654   
     length 3.93848  
     axis 0 0 0   XYZ 
    dof ry rz
    limits (-10.0 20.0)
           (-20.0 0.0)
  end
  begin
     id 25 
     name rhumerus
     direction -1 -4.48958e-011 3.02044e-027  
     length 5.25109   
     axis 180 30 90   XYZ
    dof rx ry rz
    limits (-90.0 60.0)
           (-90.0 90.0)
           (-90.0 90.0)
  end
  begin
     id 26 
     name rradius
     direction -1 -4.4897e-011 9.78352e-028   
     length 3.28364   
     axis 180 30 90   XYZ
    dof rx
    limits (-10.0 170.0)
  end
  begin
     id 27 
     name rwrist
     direction -1 -4.48943e-011 1.99918e-027   
     length 1.64182   
     axis 2.96054e-016 -90 -90   XYZ
    dof ry
    limits (-180.0 0.0)
  end
  begin
     id 28
     name rhand
     direction -1 -4.49024e-011 3.98478e-027   
     length 0.599745   
     axis -2.5488e-015 -90 -90   XYZ
    dof rx rz
    limits (-90.0 90.0)
           (-45.0 45.0)
  end
  begin
     id 29
     name rfingers
     direction -1 -4.48914e-011 8.00621e-027   
     length 0.48353   
     axis -5.0975e-015 -90 -90   XYZ
    dof rx
    limits (0.0 90.0)
  end
  begin
     id 30
     name rthumb
     direction -0.707107 -6.34992e-011 0.707107   
     length 0.694255   
     axis -90 -45 4.48553e-014   XYZ
    dof rx rz
    limits (-45.0 45.0)
           (-45.0 45.0)
  end
:hierarchy
  begin
    root lhipjoint rhipjoint lowerback
    lhipjoint lfemur
    lfemur ltibia
    ltibia lfoot
    lfoot ltoes
    rhipjoint rfemur
    rfemur rtibia
    rtibia rfoot
    rfoot rtoes
    lowerback upperback
    upperback thorax
    thorax lowerneck lclavicle rclavicle
    lowerneck upperneck
    upperneck head
    lclavicle lhumerus
    lhumerus lradius
    lradius lwrist
    lwrist lhand lthumb
    lhand lfingers
    rclavicle rhumerus
    rhumerus rradius
    rradius rwrist
    rwrist rhand rthumb
    rhand rfingers
  end

#!OML:ASF E:\CV Data\Top Level 1\Subject 1\Session 1\player.ASF
:FULLY-SPECIFIED
:DEGREES
650
root 8.04012 17.7509 -12.1447 9.84602 -1.83883 0.659779
lowerback 8.69801 4.99924 8.7998
upperback -0.633856 7.91763 6.55985
thorax -5.31127 3.73203 0.984847
lowerneck -20.3067 -9.42368 -12.7477
upperneck 17.5434 -9.55769 2.04796
head 9.61964 -5.08933 1.33722
rclavicle 2.22639e-014 -6.36111e-015
rhumerus 13.5364 -26.081 -90.5998
rradius 34.0751
rwrist -52.1647
rhand -27.027 -13.3581
rfingers 7.12502
rthumb -0.446182 -43.3374
lclavicle 2.22639e-014 -6.36111e-015
lhumerus -32.1101 -8.21774 87.6959
lradius 51.4841
lwrist 2.77879
lhand -11.0799 8.57495
lfingers 7.12502
lthumb 14.9435 38.0159
rfemur -10.1468 -8.32153 19.2047
rtibia 26.0409
rfoot -21.2938 -30.2559
rtoes 4.9606
lfemur -25.8415 -1.18892 -21.4274
ltibia 18.1711
lfoot -0.0528256 -16.9265
ltoes 5.19898
651
root 8.04187 17.7503 -12.1321 9.90939 -1.64176 0.641992
lowerback 8.70811 5.1907 8.82425
upperback -0.778774 8.19098 6.50987
thorax -5.45076 3.85715 0.881536
lowerneck -20.2008 -9.60843 -12.8172
upperneck 17.4917 -9.80242 2.02551
head 9.60385 -5.20963 1.3043
rclavicle 3.65764e-014 -1.90833e-014
rhumerus 15.869 -24.8951 -91.4879
rradius 35.2421
rwrist -52.8677
rhand -25.6815 -13.2012
rfingers 7.12502
rthumb 0.853345 -43.1793
lclavicle 3.65764e-014 -1.90833e-014
lhumerus -32.1881 -8.43246 87.8396
lradius 52.0118
lwrist 2.89537
lhand -11.2806 8.19115
lfingers 7.12502
lthumb 14.7502 37.6463
rfemur -10.1093 -8.51463 19.2343
rtibia 25.9718
rfoot -21.3174 -30.2053
rtoes 4.89729
lfemur -25.9349 -1.2178 -21.4435
ltibia 18.2711
lfoot -0.132223 -17.042
ltoes 5.29894
652
root 8.04287 17.7497 -12.1193 9.98213 -1.42243 0.615558
lowerback 8.70099 5.36341 8.84474
upperback -0.918645 8.43728 6.47646
thorax -5.57888 3.96982 0.802293
lowerneck -20.116 -9.77386 -12.8701
upperneck 17.4365 -10.0148 1.96943
head 9.58534 -5.31737 1.26188
rclavicle 2.98177e-014 5.08889e-014
rhumerus 18.311 -24.0389 -92.4621
rradius 36.1173
rwrist -53.3676
rhand -24.4173 -13.0157
rfingers 7.12502
rthumb 2.07434 -42.9853
lclavicle 2.98177e-014 5.08889e-014
lhumerus -32.2841 -8.58055 87.9765
lradius 52.5409
lwrist 2.99943
lhand -11.3703 7.9988
lfingers 7.12502
lthumb 14.6637 37.4603
rfemur -10.0757 -8.73517 19.2795
rtibia 25.897
rfoot -21.3445 -30.1467
rtoes 4.82751
lfemur -26.0419 -1.25733 -21.4454
ltibia 18.3756
lfoot -0.215168 -17.174
ltoes 5.40044
653
root 8.0433 17.7491 -12.1062 10.0649 -1.16 0.577951
lowerback 8.67678 5.51374 8.87115
upperback -1.06045 8.65337 6.45591
thorax -5.70163 4.06784 0.738232
lowerneck -20.0532 -9.92222 -12.8998
upperneck 17.3927 -10.2011 1.88541
head 9.56988 -5.41466 1.2097
rclavicle -7.55382e-015 0
rhumerus 20.8438 -23.4443 -93.5162
rradius 36.6487
rwrist -53.7238
rhand -23.2792 -12.8182
rfingers 7.12502
rthumb 3.17351 -42.7744
lclavicle -7.55382e-015 0
lhumerus -32.396 -8.678 88.1112
lradius 53.0579
lwrist 3.09922
lhand -11.4722 7.82637
lfingers 7.12502
lthumb 14.5656 37.295
rfemur -10.0435 -8.99149 19.3461
rtibia 25.8122
rfoot -21.3702 -30.0906
rtoes 4.74808
lfemur -26.1649 -1.32864 -21.4282
ltibia 18.483
lfoot -0.294614 -17.3208
ltoes 5.51609
654
root 8.04325 17.7485 -12.0928 10.1516 -0.844998 0.532479
lowerback 8.64301 5.64105 8.90432
upperback -1.21683 8.84091 6.44363
thorax -5.83612 4.15104 0.682604
lowerneck -19.9739 -10.0531 -12.9067
upperneck 17.3612 -10.3692 1.784
head 9.5521 -5.50442 1.15183
rclavicle 1.54654e-013 3.18055e-014
rhumerus 23.4176 -23.0464 -94.6199
rradius 36.8243
rwrist -53.9764
rhand -22.4011 -12.6673
rfingers 7.12502
rthumb 4.02145 -42.6091
lclavicle 1.54654e-013 3.18055e-014
lhumerus -32.5434 -8.74199 88.2456
lradius 53.5527
lwrist 3.196
lhand -11.5454 7.72737
lfingers 7.12502
lthumb 14.4951 37.201
rfemur -10.0027 -9.2851 19.4307
rtibia 25.7134
rfoot -21.3972 -30.0421
rtoes 4.67213
lfemur -26.2966 -1.43798 -21.3956
ltibia 18.5914
lfoot -0.368812 -17.4839
ltoes 5.63732
655
root 8.04294 17.748 -12.0791 10.2355 -0.480155 0.481835
lowerback 8.60302 5.74472 8.94015
upperback -1.37572 8.99771 6.44082
thorax -5.9723 4.21909 0.639343
lowerneck -19.9212 -10.1713 -12.8964
upperneck 17.3579 -10.5198 1.676
head 9.54603 -5.58586 1.09052
rclavicle -5.64548e-014 -2.54444e-014
rhumerus 25.9601 -22.7123 -95.6946
rradius 36.7133
rwrist -54.2444
rhand -21.9192 -12.6197
rfingers 7.12502
rthumb 4.48679 -42.5522
lclavicle -5.64548e-014 -2.54444e-014
lhumerus -32.6984 -8.76887 88.3803
lradius 54.0127
lwrist 3.29904
lhand -11.6252 7.62682
lfingers 7.12502
lthumb 14.4182 37.106
rfemur -9.94518 -9.61023 19.5284
rtibia 25.5973
rfoot -21.4208 -30.0048
rtoes 4.60139
lfemur -26.4268 -1.58839 -21.3506
ltibia 18.6962
lfoot -0.436213 -17.6561
ltoes 5.76214
656
root 8.04209 17.7476 -12.0649 10.313 -0.0734293 0.427181
lowerback 8.55837 5.83118 8.97582
upperback -1.5412 9.13238 6.44167
thorax -6.11462 4.27597 0.602584
lowerneck -19.8629 -10.2801 -12.8674
upperneck 17.3706 -10.6654 1.57339
head 9.54328 -5.66357 1.02923
rclavicle 2.42517e-014 -3.18055e-015
rhumerus 28.387 -22.385 -96.6714
rradius 36.3812
rwrist -54.5497
rhand -21.9189 -12.7168
rfingers 7.12502
rthumb 4.48708 -42.6492
lclavicle 2.42517e-014 -3.18055e-015
lhumerus -32.8636 -8.77639 88.5104
lradius 54.4228
lwrist 3.41082
lhand -11.6866 7.54136
lfingers 7.12502
lthumb 14.359 37.0248
rfemur -9.86529 -9.95154 19.6383
rtibia 25.4601
rfoot -21.4426 -29.9873
rtoes 4.53767
lfemur -26.5483 -1.76936 -21.295
ltibia 18.7932
lfoot -0.496061 -17.8387
ltoes 5.88574
657
root 8.0408 17.7475 -12.0501 10.3708 0.36386 0.3703
lowerback 8.52183 5.90141 9.01031
upperback -1.70156 9.24633 6.44547
thorax -6.25776 4.32274 0.571155
lowerneck -19.8251 -10.3863 -12.8283
upperneck 17.4075 -10.8113 1.48753
head 9.55272 -5.73904 0.970888
rclavicle 1.33981e-013 2.54444e-014
rhumerus 30.6374 -22.0142 -97.4953
rradius 35.8942
rwrist -54.836
rhand -22.3981 -12.9069
rfingers 7.12502
rthumb 4.0243 -42.8486
lclavicle 1.33981e-013 2.54444e-014
lhumerus -33.0192 -8.7625 88.631
lradius 54.782
lwrist 3.52038
lhand -11.7083 7.49673
lfingers 7.12502
lthumb 14.3381 36.9816
rfemur -9.74659 -10.2964 19.7541
rtibia 25.2979
rfoot -21.4593 -29.9906
rtoes 4.49064
lfemur -26.6432 -1.97573 -21.2318
ltibia 18.8796
lfoot -0.548448 -18.024
ltoes 6.01396
658
root 8.03856 17.7479 -12.0348 10.4145 0.82069 0.310646
lowerback 8.48068 5.96171 9.0403
upperback -1.85419 9.34508 6.4473
thorax -6.39105 4.3627 0.542679
lowerneck -19.7926 -10.4921 -12.7775
upperneck 17.4461 -10.9656 1.42885
head 9.56479 -5.81451 0.918631
rclavicle 4.85035e-014 2.22639e-014
rhumerus 32.6914 -21.6206 -98.1737
rradius 35.2788
rwrist -54.943
rhand -23.1003 -13.1814
rfingers 7.12502
rthumb 3.34624 -43.1349
lclavicle 4.85035e-014 2.22639e-014
lhumerus -33.157 -8.74206 88.7361
lradius 55.0942
lwrist 3.63032
lhand -11.7069 7.46625
lfingers 7.12502
lthumb 14.3394 36.951
rfemur -9.59319 -10.627 19.8784
rtibia 25.1065
rfoot -21.4797 -30.018
rtoes 4.48601
lfemur -26.7164 -2.19751 -21.1592
ltibia 18.9545
lfoot -0.593524 -18.2116
ltoes 6.14889
659
root 8.03577 17.7486 -12.0187 10.4383 1.2991 0.249738
lowerback 8.44311 6.01137 9.07487
upperback -1.9995 9.4294 6.44262
thorax -6.51735 4.39557 0.506656
lowerneck -19.7646 -10.6031 -12.7274
upperneck 17.4934 -11.1356 1.4117
head 9.5841 -5.89268 0.877773
rclavicle -2.46493e-014 -2.8625e-014
rhumerus 34.5521 -21.2405 -98.7278
rradius 34.5519
rwrist -54.7471
rhand -23.9187 -13.4693
rfingers 7.12502
rthumb 2.55585 -43.4338
lclavicle -2.46493e-014 -2.8625e-014
lhumerus -33.279 -8.72573 88.8255
lradius 55.3687
lwrist 3.73257
lhand -11.6919 7.45195
lfingers 7.12502
lthumb 14.3539 36.9357
rfemur -9.3968 -10.9475 20.0075
rtibia 24.884
rfoot -21.4984 -30.0694
rtoes 4.51338
lfemur -26.7615 -2.4347 -21.0808
ltibia 19.0182
lfoot -0.632041 -18.4043
ltoes 6.29864
660
root 8.03231 17.7498 -12.0017 10.4387 1.78102 0.18485
lowerback 8.40615 6.05453 9.11836
upperback -2.12442 9.50273 6.42817
thorax -6.61929 4.42366 0.458153
lowerneck -19.7692 -10.7231 -12.6824
upperneck 17.5511 -11.3232 1.44501
head 9.61714 -5.97327 0.850242
rclavicle 9.74045e-014 6.04305e-014
rhumerus 36.2723 -20.9188 -99.2322
rradius 33.7273
rwrist -54.1597
rhand -24.6673 -13.765
rfingers 7.12502
rthumb 1.83289 -43.7369
lclavicle 9.74045e-014 6.04305e-014
lhumerus -33.3579 -8.70205 88.888
lradius 55.5981
lwrist 3.81629
lhand -11.6418 7.47834
lfingers 7.12502
lthumb 14.4021 36.9587
rfemur -9.18302 -11.244 20.1406
rtibia 24.6907
rfoot -21.5582 -30.1376
rtoes 4.58684
lfemur -26.8136 -2.67441 -20.9951
ltibia 19.1535
lfoot -0.709478 -18.5883
ltoes 6.45861
